<?xml version="1.0" encoding="UTF-8"?>
<svg width="49px" height="59px" viewBox="0 0 49 59" version="1.1" xmlns="http://www.w3.org/2000/svg" xmlns:xlink="http://www.w3.org/1999/xlink">
    <title>Bus-04.eps</title>
    <defs>
        <polygon id="path-1" points="0 0 48.45 0 48.45 58.0125 0 58.0125"></polygon>
    </defs>
    <g id="Page-1" stroke="none" stroke-width="1" fill="none" fill-rule="evenodd">
        <g id="Mobile" transform="translate(-258.000000, -2738.000000)">
            <g id="Bus-04.eps" transform="translate(258.000000, 2738.000000)">
                <mask id="mask-2" fill="white">
                    <use xlink:href="#path-1"></use>
                </mask>
                <g id="Clip-2"></g>
                <path d="M0,47.5383431 L0,53.7070056 C0,55.8022237 1.684122,58.0125 3.784914,58.0125 L7.569828,58.0125 C9.67062,58.0125 11.355711,55.8022237 11.355711,53.7070056 L11.355711,50.7609375 L37.094289,50.7609375 L37.094289,53.7070056 C37.094289,55.8022237 38.77938,58.0125 40.879203,58.0125 L44.665086,58.0125 C46.765878,58.0125 48.45,55.8022237 48.45,53.7070056 L48.45,47.5383431 L0,47.5383431 Z M40.803621,33.036185 C43.620504,33.036185 45.876336,35.2000512 45.876336,37.8695931 C45.876336,40.5401019 43.620504,42.7039681 40.803621,42.7039681 C37.986738,42.7039681 35.731875,40.5401019 35.731875,37.8695931 C35.731875,35.2000512 37.987707,33.036185 40.803621,33.036185 Z M7.646379,33.036185 C10.462293,33.036185 12.718125,35.2000512 12.718125,37.8695931 C12.718125,40.5401019 10.462293,42.7039681 7.646379,42.7039681 C4.829496,42.7039681 2.573664,40.5401019 2.573664,37.8695931 C2.573664,35.2000512 4.829496,33.036185 7.646379,33.036185 Z M2.4225,29.00625 L46.0275,29.00625 L46.0275,9.66875 L2.4225,9.66875 L2.4225,29.00625 Z M19.38,8.05696937 L29.07,8.05696937 L29.07,2.4171875 L19.38,2.4171875 L19.38,8.05696937 Z M6.358578,0 C2.827542,0 0,3.90327437 0,7.2515625 L0,45.9265625 L48.45,45.9265625 L48.45,7.2515625 C48.45,3.90327437 45.623427,0 42.090453,0 L6.358578,0 L6.358578,0 Z" id="Fill-1" fill="#FFFFFF" mask="url(#mask-2)"></path>
            </g>
        </g>
    </g>
</svg>