<?xml version="1.0" encoding="UTF-8"?>
<svg width="53px" height="45px" viewBox="0 0 53 45" version="1.1" xmlns="http://www.w3.org/2000/svg" xmlns:xlink="http://www.w3.org/1999/xlink">
    <title>Car-04.eps</title>
    <defs>
        <polygon id="path-1" points="0 0 52.59375 0 52.59375 44.625 0 44.625"></polygon>
    </defs>
    <g id="Page-1" stroke="none" stroke-width="1" fill="none" fill-rule="evenodd">
        <g id="Mobile" transform="translate(-178.000000, -2691.000000)">
            <g id="Car-04.eps" transform="translate(178.000000, 2691.000000)">
                <mask id="mask-2" fill="white">
                    <use xlink:href="#path-1"></use>
                </mask>
                <g id="Clip-2"></g>
                <path d="M0,35.5486598 L0,41.221067 C0,43.1067107 1.53007356,44.625 3.42992163,44.625 L6.85984327,44.625 C8.75969135,44.625 10.2897649,43.1067107 10.2897649,41.221067 L10.2897649,38.9525928 L42.3039851,38.9525928 L42.3039851,41.221067 C42.3039851,43.1067107 43.8332495,44.625 45.7330976,44.625 L49.1638284,44.625 C51.0636764,44.625 52.59375,43.1067107 52.59375,41.221067 L52.59375,35.5486598 L0,35.5486598 Z M44.3041659,19.665268 C47.3036279,19.665268 49.7350774,22.0779145 49.7350774,25.0542178 C49.7350774,28.030521 47.3036279,30.4431675 44.3041659,30.4431675 C41.305513,30.4431675 38.8740635,28.030521 38.8740635,25.0542178 C38.8740635,22.0779145 41.305513,19.665268 44.3041659,19.665268 Z M7.71752596,19.665268 C10.716988,19.665268 13.1484375,22.0779145 13.1484375,25.0542178 C13.1484375,28.030521 10.716988,30.4431675 7.71752596,30.4431675 C4.71806394,30.4431675 2.28661442,28.030521 2.28661442,25.0542178 C2.28661442,22.0779145 4.71806394,19.665268 7.71752596,19.665268 Z M12.3627678,3.7818763 L40.2309822,3.7818763 C41.9536298,3.7818763 44.4352457,11.6535223 46.8772139,17.3959794 L5.71653606,17.3959794 C8.15769519,11.6535223 10.6401202,3.7818763 12.3627678,3.7818763 Z M11.4338813,0 C9.23141683,0 3.12002308,12.8419259 0,21.9345567 L0,33.2793711 L52.59375,33.2793711 L52.59375,21.9345567 C49.4737269,12.8419259 43.361524,0 41.1598688,0 L11.4338813,0 L11.4338813,0 Z" id="Fill-1" fill="#FFFFFF" mask="url(#mask-2)"></path>
            </g>
        </g>
    </g>
</svg>