<svg id="Layer_1" data-name="Layer 1" xmlns="http://www.w3.org/2000/svg" viewBox="0 0 18.29 13.34"><defs><style>.cls-1{fill:#f1617a;}</style></defs><title>“</title><path class="cls-1" d="M15,1.14a4.58,4.58,0,0,1,2.07.43A3.17,3.17,0,0,1,18.4,2.82a4.53,4.53,0,0,1,.79,1.77,9.34,9.34,0,0,1,.27,2.21,8.44,8.44,0,0,1-1.23,4.44,8.38,8.38,0,0,1-3.81,3.24L14,13.62a6.72,6.72,0,0,0,2.4-1.78,4.8,4.8,0,0,0,1.25-2.45,4.27,4.27,0,0,0,0-2,3.58,3.58,0,0,1-2.78,1.15,3.9,3.9,0,0,1-2.74-1,3.55,3.55,0,0,1-1-2.72,3.41,3.41,0,0,1,1.12-2.68A4,4,0,0,1,15,1.14Zm-9.89,0a4.58,4.58,0,0,1,2.07.43A3.17,3.17,0,0,1,8.51,2.82,4.53,4.53,0,0,1,9.3,4.59,9.34,9.34,0,0,1,9.57,6.8a8.44,8.44,0,0,1-1.23,4.44,8.33,8.33,0,0,1-3.81,3.24l-.43-.86a6.9,6.9,0,0,0,2.4-1.78A4.78,4.78,0,0,0,7.74,9.39a4.27,4.27,0,0,0,0-2A3.58,3.58,0,0,1,5,8.53a3.9,3.9,0,0,1-2.74-1A3.55,3.55,0,0,1,1.17,4.83,3.38,3.38,0,0,1,2.3,2.15,4,4,0,0,1,5.1,1.14Z" transform="translate(-1.17 -1.14)"/></svg>