<svg id="Layer_1" data-name="Layer 1" xmlns="http://www.w3.org/2000/svg" viewBox="0 0 18.29 13.37"><defs><style>.cls-1{fill:#f1617a;}</style></defs><title>“2</title><path class="cls-1" d="M5.65,14.5a4.51,4.51,0,0,1-2.06-.43,3.18,3.18,0,0,1-1.35-1.24,4.51,4.51,0,0,1-.8-1.78,9.22,9.22,0,0,1-.27-2.21A8.52,8.52,0,0,1,2.38,4.4,8.4,8.4,0,0,1,6.19,1.15L6.62,2A6.68,6.68,0,0,0,4.23,3.8,4.81,4.81,0,0,0,3,6.25a4.27,4.27,0,0,0,0,2A3.62,3.62,0,0,1,5.77,7.1a3.88,3.88,0,0,1,2.74,1,3.54,3.54,0,0,1,1.07,2.71,3.43,3.43,0,0,1-1.12,2.69A4.13,4.13,0,0,1,5.65,14.5Zm9.89,0A4.58,4.58,0,0,1,13.47,14a3.15,3.15,0,0,1-1.34-1.24,4.51,4.51,0,0,1-.8-1.78,9.2,9.2,0,0,1-.27-2.2,8.48,8.48,0,0,1,1.21-4.45,8.4,8.4,0,0,1,3.81-3.25l.43.86a6.8,6.8,0,0,0-2.39,1.79,4.74,4.74,0,0,0-1.24,2.45,4.31,4.31,0,0,0,0,2,3.58,3.58,0,0,1,2.78-1.16,3.85,3.85,0,0,1,2.74,1,3.51,3.51,0,0,1,1.06,2.71,3.4,3.4,0,0,1-1.12,2.69A4.05,4.05,0,0,1,15.54,14.47Z" transform="translate(-1.17 -1.12)"/></svg>