<?xml version="1.0" encoding="UTF-8"?>
<svg width="48px" height="56px" viewBox="0 0 48 56" version="1.1" xmlns="http://www.w3.org/2000/svg" xmlns:xlink="http://www.w3.org/1999/xlink">
    <title>Train-01.eps</title>
    <defs>
        <polygon id="path-1" points="0 0 47.175 0 47.175 55.4625 0 55.4625"></polygon>
    </defs>
    <g id="Page-1" stroke="none" stroke-width="1" fill="none" fill-rule="evenodd">
        <g id="Mobile" transform="translate(-25.000000, -2689.000000)">
            <g id="Train-01.eps" transform="translate(25.000000, 2689.000000)">
                <mask id="mask-2" fill="white">
                    <use xlink:href="#path-1"></use>
                </mask>
                <g id="Clip-2"></g>
                <path d="M36.8559939,43.785795 C34.4088247,43.785795 32.4331626,41.8307419 32.4331626,39.407955 C32.4331626,36.9851681 34.4088247,35.0291906 36.8559939,35.0291906 C39.3031632,35.0291906 41.2778916,36.9851681 41.2778916,39.407955 C41.2778916,41.8307419 39.3031632,43.785795 36.8559939,43.785795 Z M26.5360542,23.35341 L41.2778916,23.35341 L41.2778916,11.676705 L26.5360542,11.676705 L26.5360542,23.35341 Z M5.89710842,23.35341 L20.6398795,23.35341 L20.6398795,11.676705 L5.89710842,11.676705 L5.89710842,23.35341 Z M10.3199397,43.785795 C7.87277045,43.785795 5.89710842,41.8307419 5.89710842,39.407955 C5.89710842,36.9851681 7.87277045,35.0291906 10.3199397,35.0291906 C12.767109,35.0291906 14.742771,36.9851681 14.742771,39.407955 C14.742771,41.8307419 12.767109,43.785795 10.3199397,43.785795 Z M23.5875,0 C11.7942168,0 0,1.45958813 0,11.676705 L0,39.407955 C0,45.0410962 4.62917409,49.6241475 10.3199397,49.6241475 L5.89710842,54.0029119 L5.89710842,55.4625 L12.4720669,55.4625 L18.3691753,49.6241475 L29.4846084,49.6241475 L35.3817168,55.4625 L41.2778916,55.4625 L41.2778916,54.0029119 L36.8559939,49.6241475 C42.5458259,49.6241475 47.175,45.0410962 47.175,39.407955 L47.175,11.676705 C47.175,1.45958813 36.6197735,0 23.5875,0 L23.5875,0 Z" id="Fill-1" fill="#FFFFFF" mask="url(#mask-2)"></path>
            </g>
        </g>
    </g>
</svg>